<svg width="26" height="25" viewBox="0 0 26 25" fill="none" xmlns="http://www.w3.org/2000/svg">
<path d="M19.672 0.219727H5.21596C2.37896 0.219727 0.0799561 2.45373 0.0799561 5.20973V12.2297C0.0799561 14.9867 2.37996 17.2197 5.21596 17.2197H19.672C22.508 17.2197 24.807 14.9857 24.807 12.2297V5.20973C24.807 2.45373 22.508 0.219727 19.672 0.219727ZM16.199 9.06173L9.43696 12.1947C9.25696 12.2777 9.04896 12.1507 9.04896 11.9567V5.49473C9.04896 5.29773 9.26196 5.16973 9.44296 5.25873L16.205 8.58873C16.25 8.61 16.2881 8.64379 16.3145 8.68606C16.3409 8.72833 16.3546 8.77731 16.354 8.82716C16.3533 8.877 16.3384 8.92561 16.3109 8.9672C16.2834 9.00879 16.2446 9.0416 16.199 9.06173Z" fill="white"/>
</svg>
