<svg width="25" height="30" viewBox="0 0 25 30" fill="none" xmlns="http://www.w3.org/2000/svg">
<path d="M7.77996 1.81973C6.07996 1.91973 4.57996 2.31973 3.37996 3.51973C2.17996 4.71973 1.77996 6.21973 1.67996 7.91973C1.67996 9.01973 1.57996 9.41973 1.57996 12.2197C1.57996 15.0197 1.57996 15.4197 1.67996 16.5197C1.77996 18.2197 2.17996 19.7197 3.37996 20.9197C4.57996 22.1197 6.07996 22.5197 7.77996 22.6197C8.87996 22.6197 9.27996 22.7197 12.08 22.7197C14.98 22.7197 15.28 22.7197 16.38 22.6197C18.08 22.5197 19.58 22.1197 20.78 20.9197C21.98 19.7197 22.38 18.2197 22.48 16.5197C22.58 15.4197 22.58 15.0197 22.58 12.2197C22.58 9.41973 22.58 9.01973 22.48 7.91973C22.38 6.21973 21.98 4.71973 20.78 3.51973C19.58 2.31973 18.08 1.91973 16.38 1.81973C15.28 1.81973 14.88 1.71973 12.08 1.71973C9.27996 1.71973 8.97996 1.71973 7.77996 1.81973Z" fill="white"/>
<path d="M12.18 6.71973C9.17996 6.71973 6.67996 9.21973 6.67996 12.2197C6.67996 15.2197 9.17996 17.7197 12.18 17.7197C15.18 17.7197 17.68 15.2197 17.68 12.2197C17.68 9.21973 15.18 6.71973 12.18 6.71973ZM12.18 15.7197C10.28 15.7197 8.67996 14.1197 8.67996 12.2197C8.67996 10.3197 10.28 8.71973 12.18 8.71973C14.08 8.71973 15.68 10.3197 15.68 12.2197C15.68 14.1197 14.08 15.7197 12.18 15.7197Z" fill="#373656"/>
</svg>
