<svg width="25" height="31" viewBox="0 0 25 31" fill="none" xmlns="http://www.w3.org/2000/svg">
<path d="M22.08 22.2197H17.88V15.7197C17.88 14.2197 17.88 12.2197 15.78 12.2197C13.58 12.2197 13.38 13.8197 13.38 15.6197V22.2197H9.17996V8.91973H13.08V10.7197C13.68 9.71973 14.88 8.61973 16.98 8.61973C21.18 8.61973 21.98 11.4197 21.98 15.0197L22.08 22.2197ZM4.47996 7.11973C3.17996 7.11973 2.07996 6.11973 2.07996 4.71973C2.07996 3.41973 3.07996 2.21973 4.47996 2.21973C5.77996 2.21973 6.87996 3.21973 6.87996 4.61973C6.97996 6.01973 5.87996 7.11973 4.47996 7.11973ZM6.57996 22.2197H2.57996V8.91973H6.77996V22.2197H6.57996Z" fill="white"/>
</svg>
